<?xml version="1.0" standalone="no"?>
<!DOCTYPE svg PUBLIC "-//W3C//DTD SVG 20010904//EN"
 "http://www.w3.org/TR/2001/REC-SVG-20010904/DTD/svg10.dtd">
<svg version="1.0" xmlns="http://www.w3.org/2000/svg"
 width="512.000000pt" height="512.000000pt" viewBox="0 0 512.000000 512.000000"
 preserveAspectRatio="xMidYMid meet">

<g transform="translate(0.000000,512.000000) scale(0.100000,-0.100000)"
fill="#000000" stroke="none">
<path d="M2380 5110 c-389 -48 -719 -214 -995 -501 -243 -253 -389 -565 -435
-929 -7 -56 -10 -453 -10 -1164 l1 -1080 -47 -40 c-41 -35 -47 -37 -56 -23
-18 33 -151 117 -217 138 -260 83 -535 -74 -606 -346 -29 -115 -12 -271 43
-389 41 -87 135 -206 248 -316 157 -152 503 -449 530 -456 14 -4 36 -2 49 4
22 10 154 123 408 350 l127 114 56 -51 c221 -202 503 -339 817 -398 143 -26
419 -24 565 5 159 32 277 73 427 147 446 221 751 619 866 1130 l23 100 3 1114
4 1114 22 -20 c29 -27 59 -35 88 -24 32 12 431 361 550 481 197 199 278 359
279 547 0 236 -148 429 -375 488 -32 8 -76 15 -96 15 -109 0 -249 -56 -336
-135 l-50 -44 -34 35 c-43 45 -128 96 -199 120 -82 28 -226 25 -303 -5 -102
-40 -199 -127 -256 -230 -7 -12 -23 -6 -87 32 -248 145 -493 215 -779 222 -82
2 -184 0 -225 -5z m460 -190 c185 -38 358 -107 503 -202 l69 -45 3 -81 c9
-227 125 -401 462 -696 l101 -87 13 -82 c20 -116 17 -364 -4 -451 -55 -221
-194 -406 -425 -564 -50 -34 -94 -62 -98 -62 -4 0 -28 19 -53 43 -25 23 -62
54 -81 68 l-34 26 47 55 c58 68 139 200 163 267 16 45 20 49 56 55 98 16 201
97 246 195 35 75 37 201 4 273 -43 96 -141 177 -237 198 -49 10 -51 12 -73 67
-119 290 -390 519 -712 599 -106 27 -354 27 -460 0 -320 -81 -594 -308 -708
-588 -27 -67 -27 -67 -77 -78 -96 -21 -195 -103 -238 -198 -33 -72 -30 -198 5
-273 45 -99 148 -179 247 -195 23 -4 41 -12 41 -18 0 -41 118 -240 189 -319
l35 -39 -24 -20 c-14 -10 -51 -41 -82 -69 -31 -27 -60 -49 -63 -49 -16 0 -187
126 -253 186 -135 123 -219 258 -264 420 -31 114 -31 386 0 526 62 282 184
515 375 714 235 247 543 402 877 443 117 15 330 6 450 -19z m1185 -9 c66 -33
110 -73 158 -147 58 -86 114 -81 180 19 48 73 113 121 200 148 189 59 357 -66
383 -284 20 -167 -81 -335 -342 -568 -225 -201 -329 -289 -341 -286 -18 3
-349 296 -451 399 -50 51 -108 116 -128 143 -112 155 -130 317 -50 460 80 145
237 191 391 116z m-1423 -591 c72 -48 127 -141 128 -218 0 -42 -46 -92 -85
-92 -32 0 -85 50 -85 80 0 80 -89 119 -145 63 -24 -25 -27 -34 -23 -78 12
-137 114 -230 253 -230 180 0 288 152 245 344 -7 31 -19 68 -26 83 -14 27 -14
27 10 18 229 -87 421 -293 501 -537 20 -62 45 -83 100 -83 87 0 158 -44 184
-113 42 -112 -45 -227 -171 -227 -74 0 -90 -15 -127 -119 -91 -251 -293 -444
-551 -526 -66 -21 -112 -28 -206 -32 -185 -8 -320 23 -472 109 -153 86 -319
282 -368 433 -38 117 -57 135 -142 135 -156 1 -229 186 -116 292 37 35 74 48
132 48 26 0 57 7 68 14 12 9 34 53 53 105 100 280 342 485 641 546 109 22 150
19 202 -15z m-1331 -1595 c132 -127 274 -220 628 -412 208 -113 402 -232 520
-320 2 -1 -30 -39 -73 -83 -114 -120 -199 -240 -271 -385 -77 -155 -115 -266
-149 -435 -35 -175 -46 -301 -46 -536 0 -112 -3 -204 -7 -204 -27 0 -259 167
-312 223 l-23 26 36 49 c48 67 91 154 112 232 25 95 23 247 -5 324 -55 153
-176 268 -326 312 -61 17 -182 23 -222 10 l-23 -7 0 691 0 692 39 -49 c21 -26
76 -84 122 -128z m2736 -645 c-3 -630 -4 -659 -25 -752 -126 -559 -529 -977
-1071 -1113 -252 -63 -511 -56 -773 22 l-88 26 0 244 c0 134 5 287 10 341 44
409 180 713 429 963 177 176 298 259 726 497 300 167 408 233 508 308 80 60
225 200 259 250 l23 34 3 -83 c2 -45 1 -377 -1 -737z m-1874 490 c263 -123
591 -123 854 0 45 21 101 52 126 68 l44 31 64 -43 c104 -70 107 -61 -59 -151
-231 -124 -507 -294 -573 -351 -8 -8 -20 -14 -26 -14 -5 0 -86 51 -179 113
-93 61 -235 148 -314 191 -80 43 -171 93 -203 111 l-58 32 42 34 c24 19 59 44
78 56 l35 21 44 -30 c24 -17 80 -47 125 -68z m-1546 -1232 c61 -22 152 -101
184 -158 43 -77 111 -78 162 -2 70 102 153 161 255 180 98 18 185 -12 255 -87
61 -65 89 -143 89 -246 0 -187 -99 -322 -477 -650 -88 -76 -169 -147 -180
-156 -21 -18 -24 -16 -185 123 -202 174 -383 354 -433 429 -78 120 -102 234
-73 349 34 133 121 221 235 239 57 9 101 4 168 -21z"/>
</g>
</svg>
